<?xml version="1.0" encoding="utf-8"?>
<!-- Generator: Adobe Illustrator 26.0.1, SVG Export Plug-In . SVG Version: 6.00 Build 0)  -->
<svg version="1.1" id="Camada_1" xmlns="http://www.w3.org/2000/svg" xmlns:xlink="http://www.w3.org/1999/xlink" x="0px" y="0px"
	 viewBox="0 0 1160 1160" style="enable-background:new 0 0 1160 1160;" xml:space="preserve" width="26" height="26">
<style type="text/css">
	.st0{fill:#FFFFFF;stroke:#000000;stroke-width:80;stroke-miterlimit:10;}
	.st1{fill:#E52421;}
	.st2{fill:#FFFFFF;stroke:#000000;stroke-width:50;stroke-linecap:round;stroke-miterlimit:10;}
	.st3{fill:#FFFFFF;stroke:#000000;stroke-width:120;stroke-linecap:round;stroke-miterlimit:10;}
	.st4{fill:none;stroke:#000000;stroke-width:80;stroke-miterlimit:10;}
	.st5{fill:none;}
</style>
<path class="st0" d="M580,1120L580,1120c-191.1,0-346.1-155-346.1-346.1V386.1C233.9,195,388.9,40,580,40h0
	c191.1,0,346.1,155,346.1,346.1v387.8C926.1,965,771.1,1120,580,1120z"/>
<path class="st1" d="M926.1,386.1v119H580V40c95.6,0,182.1,38.7,244.7,101.4S926.1,290.5,926.1,386.1z"/>
<line class="st2" x1="580" y1="580" x2="580" y2="40"/>
<line class="st3" x1="580" y1="289.9" x2="580" y2="392.5"/>
<path class="st4" d="M580,1120L580,1120c-191.1,0-346.1-155-346.1-346.1V386.1C233.9,195,388.9,40,580,40h0
	c191.1,0,346.1,155,346.1,346.1v387.8C926.1,965,771.1,1120,580,1120z"/>
<line class="st5" x1="580" y1="1120" x2="580" y2="40"/>
<line class="st5" x1="926.1" y1="505.1" x2="580" y2="505.1"/>
</svg>
