<?xml version="1.0" encoding="utf-8"?>
<!-- Generator: Adobe Illustrator 26.0.1, SVG Export Plug-In . SVG Version: 6.00 Build 0)  -->
<svg version="1.1" id="Camada_1" xmlns="http://www.w3.org/2000/svg" xmlns:xlink="http://www.w3.org/1999/xlink" x="0px" y="0px"
	 viewBox="0 0 2060 2060" style="enable-background:new 0 0 2060 2060;" xml:space="preserve" width="26" height="26">
<style type="text/css">
	.st0{fill:#9B82BB;}
	.st1{fill:#8264A8;}
	.st2{fill:#7556A0;}
	.st3{fill:#6B4595;}
</style>
<path class="st0" d="M2058.4,314.7c0,1.1,0.6,1.4,1.6,1v1430.1c-1-0.4-1.7-0.1-1.7,1c0,1.1,0.7,1.4,1.7,1v8
	c-0.6-1.7-1.9-1.9-2.7-0.5c-1.1,2-1.7,4.3-2.4,6.5c-11.9,35.2-34.8,60.8-68.3,76.9c-70.1,33.7-140.3,67.5-210.4,101.2
	c-68.6,33-137.3,65.8-205.8,99.1c-23,11.2-46.8,17-72.3,14.9c-19.5-1.6-37.9-6.8-54.4-17.6c3.4-0.6,6.6,0.3,9.8,0.9
	c7.2,1.4,14.3,3.1,21.7,2.4c47.5-4.5,71.7-43.9,71.2-77.4c-0.9-56.6-0.3-113.2-0.3-169.9c-0.1-108.9-0.1-217.8-0.2-326.7
	c1.7-12.6-0.3-25.3,1.1-37.9c-0.1-4.3-0.4-8.6-0.4-13c0-268.7-0.1-537.4-0.1-806.2c0-4.6-0.3-9.3-0.5-13.9
	c-0.1-53.6-0.1-107.3-0.2-160.9c0.1-2.3,0.2-4.7,0.2-7c0-110.6-0.1-221.2-0.1-331.9c0-43.1-40.5-82.2-91.2-71.8
	c-4.5,0.9-8.9,2.9-13.7,2.3c25.2-16.8,53.1-22.1,82.8-18.9c15.3,1.7,29.8,6.7,43.7,13.4c54.5,26.3,109.1,52.4,163.6,78.8
	c16.9,8.2,33.4,17,50.2,25.3c14.6,7.3,29.7,13.6,44.2,21.1c20.9,10.8,42.4,20.5,63.7,30.5c24.9,11.7,49.3,24.5,74.7,35.3
	c17.4,7.5,34.7,16.3,49.9,27.8c19.3,14.6,32.2,34.4,40.2,57.2c1.1,3.1,2,6.4,3.2,9.4c0.5,1.4,1.7,1.8,2.7,0.2v8
	C2059,313.3,2058.4,313.7,2058.4,314.7z"/>
<path class="st1" d="M1546.5,1962.3c0.5,33.5-23.7,72.9-71.2,77.4c-7.4,0.7-14.6-1-21.7-2.4c-3.2-0.6-6.4-1.5-9.7-1
	c-0.4-0.7-0.9-1.2-1.8-0.8c-11.3-5.5-20.1-14.1-28.4-23.2c-59-65.2-117.9-130.3-176.8-195.5c-52-57.5-104-115.1-156-172.7
	c-54.7-60.5-109.4-120.9-164.1-181.4c-46-50.9-92-101.7-137.9-152.6c-10.2-11.3-21.1-22.2-30.4-34.3c-6.2-3.9-8.7-11.9-16-14.7
	c-3.6-7.3-10.1-12.3-15.1-18.4c-8.6-10.6-18.4-20.1-27.6-30.2c-16.5-18.2-32.9-36.5-49.2-54.8c-7.1-7.9-14.6-15.4-21.6-23.5
	c-14.7-17.1-30.5-33.3-45.6-50.1c-14.6-16.3-29-32.9-44.4-48.5c-1.6-1.6-2.6-3.8-3.9-5.8c-10.2-11.4-20.3-22.9-30.6-34.3
	c-72.3-80-144.6-160.1-217.1-240c-6-6.6-11-14.2-18.8-19.1c-5.1-6.1-10.1-12.4-15.4-18.3c-15.6-17.2-31.5-34.2-47.1-51.5
	c-22.1-24.4-43.9-49-65.9-73.5c-8.4-9.4-17-18.6-25.6-27.9c-4.1-4.4-8.2-8.7-11.9-13.4c-13.6-17.2-31.6-24.1-53-19.5
	c-10.8,2.3-20.6,7.7-27.2,17.4c-2.1,3-3.7,6.3-6,9.2c-1.5,1.8-2-0.2-2.7-1.3c5.3-30.8,23.4-51.7,51.5-63.8
	c33.3-14.4,66.8-28,100.3-41.9c18.4-7.7,36.8-15.4,55.3-22.8c31.8-12.7,61.5-8.3,88,13.3c18.2,14.8,35.8,30.4,53.4,46
	c12.9,11.5,26.8,21.9,40.2,32.8c8.3,6.8,16.5,13.8,24.8,20.5c14,11.3,28,22.5,41.8,34c12.6,10.4,25.1,20.9,37.7,31.3
	c13.4,10.9,27.1,21.5,40.2,32.7c19.4,16.5,40.8,30.4,59.3,47.9c18.5,17.5,39,32.6,58.3,49.1c21.6,18.5,43.7,36.3,66,53.9
	c4.2,3.3,7.3,8.6,13.5,9.1c5.4,7,13.2,11,19.6,16.8c26,23.2,54.4,43.6,81,66.2c20.5,17.4,41.7,34,62.4,51.1
	c15.4,12.6,30.9,25.2,46,38.2c17.1,14.7,35.1,28.4,52.1,43.3c6.1,5.3,11.4,12.4,19.9,14.6c1,3.8,4,6.1,6.8,8.3
	c18.5,13.9,35.8,29.5,54.4,43.2c16.6,12.2,31.9,26.2,48,39.1c25.2,20.2,49.2,41.7,74,62.2c16.3,13.5,33.1,26.4,49.5,39.8
	c16.5,13.5,32.8,27.2,49,41c4,3.4,9.2,5.3,11.8,10.2c13.8,8.8,25.8,19.8,38.6,29.8c26.7,20.7,52.5,42.5,78.2,64.3
	c18.4,15.7,37.3,30.6,55.9,46c16.4,13.6,32.7,27.2,49.1,40.8c4.9,4.1,9.2,9.2,15.7,11.1c0.1,108.9,0.2,217.8,0.2,326.7
	C1546.2,1849,1545.6,1905.7,1546.5,1962.3z"/>
<path class="st2" d="M1545.9,433.8c0.1,53.6,0.1,107.3,0.2,160.9c-2.4,1.8-4.9,3.4-7.2,5.3c-142.8,117-285.5,234-428.2,351
	c-31.9,26.2-63.8,52.5-95.7,78.8c-8.6-2.2-13.9-9.2-19.9-14.6c-17-14.9-34.9-28.6-52.1-43.3c-15.1-13-30.6-25.5-46-38.2
	c-20.8-17.1-42-33.7-62.4-51.1c-26.6-22.6-54.9-43-81-66.2c-6.4-5.7-14.2-9.8-19.6-16.8c19-21.3,37.8-42.9,57.2-63.9
	c14-15.1,27.6-30.6,41.5-45.7c25-27.2,49.9-54.3,74.2-82.1c14.6-16.7,30-32.8,44.9-49.3c21.8-24.2,43.4-48.4,65.1-72.7
	c6-6.7,12.1-13.3,18.2-19.7c11.2-11.8,21-24.9,33.3-35.7c0.9-1,1.9-1.9,2.8-2.9c3.5-0.2,4.9-2.3,5-5.6c15-16.9,30-33.9,45.1-50.7
	c42.7-47.5,85.5-95,128.3-142.4c15.6-17.3,31.4-34.3,47-51.6c22.2-24.6,44.3-49.4,66.5-74c16.1-17.8,32.3-35.4,48.5-53.1
	c8.8-9.5,17.5-19.1,29.5-24.9c4.8,0.6,9.2-1.4,13.7-2.3c50.7-10.5,91.2,28.7,91.2,71.8c0,110.6,0.1,221.2,0.1,331.9
	C1546.1,429.1,1545.9,431.4,1545.9,433.8z"/>
<path class="st2" d="M1076.1,422.1c-0.2,3.2-1.6,5.3-5,5.6C1072.2,425.3,1073.7,423.3,1076.1,422.1z"/>
<path class="st2" d="M1443.9,2036.4l-0.2-0.1C1443.7,2036.3,1443.8,2036.3,1443.9,2036.4C1443.8,2036.3,1443.8,2036.3,1443.9,2036.4
	z"/>
<path class="st0" d="M1442,2035.4c0.9-0.3,1.4,0.2,1.8,0.9C1443.2,2036.1,1442.6,2035.8,1442,2035.4z"/>
<path class="st2" d="M717.2,1242.5c-8.6-10.6-18.4-20.1-27.6-30.2c-16.5-18.2-32.9-36.5-49.2-54.8c-7.1-7.9-14.6-15.4-21.6-23.5
	c-14.7-17.1-30.5-33.3-45.6-50.1c-14.6-16.3-29-32.9-44.4-48.5c-1.6-1.6-2.6-3.8-3.9-5.8c-6.6,10.1-15.4,18.3-23.4,27.2
	c-62.2,69.1-124.6,138-186.9,206.9c-16.1,17.8-32.2,35.6-48.3,53.3c-1.9,2.1-4.2,4-6.1,5.9l-139,148.2c0,0-90.2,70.5-121.2-14.3
	v46.9c4.8-2.4,3.5,2.1,4,3.8c7.9,29,26,48.8,53.8,60.2c50.2,20.6,100.3,41.4,150.4,62.1c32.9,13.6,63.2,9.1,90.8-13.1
	c13-10.4,25.6-21.4,38.4-31.9c90.9-74.6,181.9-149.1,272.9-223.7c40.7-33.4,81.3-66.9,122-100.3
	C728.8,1253.6,722.2,1248.7,717.2,1242.5z"/>
<path class="st3" d="M260.2,1322.9l-139,148.2c0,0-90.2,70.5-121.2-14.3V561.7c2.5-0.3,1.8-3.2,3.5-4.2c0.6,1,1.2,3.1,2.7,1.3
	c2.3-2.9,3.9-6.2,6-9.2c6.6-9.7,16.4-15,27.2-17.4c21.4-4.6,39.4,2.2,53,19.5c3.7,4.7,7.9,9,11.9,13.4c8.6,9.3,17.2,18.5,25.6,27.9
	c22,24.5,43.9,49.1,65.9,73.5c15.6,17.3,31.5,34.3,47.1,51.5c5.3,5.9,10.3,12.2,15.4,18.3c0,1.3-0.1,2.7-0.1,4
	c0,131.3,0,262.7,0,394c0,61,0,121.9,0,182.9C258.3,1319,257.5,1321.2,260.2,1322.9z"/>
</svg>
